<svg xmlns="http://www.w3.org/2000/svg" xmlns:xlink="http://www.w3.org/1999/xlink" version="1.1" x="0px" y="0px" viewBox="0 0 64 80" style="enable-background:new 0 0 64 64;" xml:space="preserve"><g><path d="M62.479,17.122l-11-6c-0.299-0.162-0.659-0.162-0.958,0L44,14.679V8c0-0.366-0.2-0.703-0.521-0.878l-11-6   c-0.299-0.162-0.659-0.162-0.958,0l-11,6C20.2,7.297,20,7.634,20,8v6.679l-6.521-3.557c-0.299-0.162-0.659-0.162-0.958,0l-11,6   C1.2,17.297,1,17.634,1,18v8c0,0.366,0.2,0.703,0.521,0.878l11,6C12.67,32.959,12.835,33,13,33s0.33-0.041,0.479-0.122l2.704-1.475   l-1.89,1.89c-0.391,0.391-0.391,1.023,0,1.414l7,7c0.391,0.391,1.023,0.391,1.414,0L25,39.414V49c-0.314,0-0.627-0.01-0.937-0.029   l-0.124,1.996C24.29,50.988,24.644,51,25,51v6.184c-1.161,0.414-2,1.514-2,2.816v2c0,0.553,0.448,1,1,1h6c0.552,0,1-0.447,1-1v-4   v-9h2v9v4c0,0.553,0.448,1,1,1h6c0.552,0,1-0.447,1-1v-2c0-1.302-0.839-2.402-2-2.816V51c0.356,0,0.71-0.012,1.061-0.033   l-0.124-1.996C39.627,48.99,39.314,49,39,49v-9.586l2.293,2.293c0.391,0.391,1.023,0.391,1.414,0l7-7   c0.391-0.391,0.391-1.023,0-1.414l-1.89-1.89l2.704,1.475C50.67,32.959,50.835,33,51,33s0.33-0.041,0.479-0.122l11-6   C62.8,26.703,63,26.366,63,26v-8C63,17.634,62.8,17.297,62.479,17.122z M51,13.139L59.912,18L51,22.861L42.088,18L51,13.139z    M14,24.594l9-4.909v5.722l-9,4.91V24.594z M22,15.406V9.685l9,4.909v5.722L22,15.406z M30,25c0-1.103,0.897-2,2-2s2,0.897,2,2v2   c0,1.103-0.897,2-2,2s-2-0.897-2-2V25z M33,14.594l9-4.909v5.722l-9,4.91V14.594z M41,19.685l9,4.909v5.722l-9-4.91V19.685z    M32,3.139L40.912,8L32,12.861L23.088,8L32,3.139z M13,13.139L21.912,18L13,22.861L4.088,18L13,13.139z M3,19.685l9,4.909v5.722   l-9-4.91V19.685z M29,61h-4v-1c0-0.552,0.449-1,1-1h3V61z M30,47c-0.552,0-1,0.447-1,1v9h-2V45h10v12h-2v-9c0-0.553-0.448-1-1-1H30   z M39,61h-4v-2h3c0.551,0,1,0.448,1,1V61z M42,39.586l-3.293-3.293c-0.287-0.286-0.716-0.373-1.09-0.217   C37.244,36.23,37,36.596,37,37v6H27v-6c0-0.404-0.244-0.77-0.617-0.924c-0.375-0.156-0.804-0.069-1.09,0.217L22,39.586L16.414,34   L18,32.414l3.293,3.293c0.391,0.391,1.023,0.391,1.414,0L25.414,33h13.172l2.707,2.707c0.391,0.391,1.023,0.391,1.414,0L46,32.414   L47.586,34L42,39.586z M45.293,30.293L42,33.586l-2.293-2.293C39.52,31.105,39.265,31,39,31h-7h-7c-0.265,0-0.52,0.105-0.707,0.293   L22,33.586l-3.293-3.293c-0.065-0.065-0.144-0.103-0.22-0.146l5.992-3.269C24.8,26.703,25,26.366,25,26v-6.679l4.593,2.505   C28.631,22.557,28,23.701,28,25v2c0,2.206,1.794,4,4,4s4-1.794,4-4v-2c0-1.299-0.631-2.443-1.593-3.174L39,19.321V26   c0,0.366,0.2,0.703,0.521,0.878l5.992,3.269C45.437,30.19,45.358,30.228,45.293,30.293z M52,30.316v-5.722l9-4.909v5.722L52,30.316   z"/><path d="M12.661,45.693c0.486,0.512,1.008,0.999,1.552,1.446l1.271-1.545c-0.48-0.396-0.942-0.825-1.373-1.278L12.661,45.693z"/><path d="M19.775,50.181c0.668,0.217,1.361,0.393,2.057,0.524l0.372-1.965c-0.615-0.116-1.225-0.271-1.815-0.462L19.775,50.181z"/><path d="M11.897,41.306L10.15,42.28c0.343,0.615,0.73,1.216,1.149,1.785l1.61-1.186C12.54,42.377,12.199,41.848,11.897,41.306z"/><path d="M15.936,48.386c0.602,0.378,1.228,0.721,1.862,1.018l0.849-1.811c-0.56-0.263-1.113-0.565-1.646-0.9L15.936,48.386z"/><path d="M10.001,34.136l-2,0.018c0.006,0.706,0.057,1.418,0.149,2.115l1.982-0.264C10.051,35.389,10.006,34.76,10.001,34.136z"/><path d="M10.496,37.842l-1.934,0.512c0.181,0.684,0.407,1.361,0.67,2.014l1.854-0.748C10.855,39.043,10.656,38.445,10.496,37.842z"/><path d="M53.867,36.005l1.982,0.264c0.093-0.697,0.143-1.409,0.149-2.115l-2-0.018C53.994,34.76,53.949,35.389,53.867,36.005z"/><path d="M41.795,48.74l0.372,1.965c0.696-0.132,1.389-0.308,2.057-0.524l-0.614-1.902C43.021,48.469,42.41,48.624,41.795,48.74z"/><path d="M51.09,42.88l1.61,1.186c0.419-0.569,0.806-1.17,1.149-1.785l-1.747-0.975C51.801,41.848,51.46,42.377,51.09,42.88z"/><path d="M52.913,39.619l1.854,0.748c0.264-0.652,0.489-1.33,0.67-2.014l-1.934-0.512C53.344,38.445,53.145,39.043,52.913,39.619z"/><path d="M45.354,47.593l0.849,1.811c0.634-0.297,1.26-0.64,1.862-1.018L47,46.692C46.467,47.027,45.913,47.33,45.354,47.593z"/><path d="M48.517,45.595l1.271,1.545c0.544-0.447,1.066-0.935,1.552-1.446l-1.45-1.377C49.459,44.77,48.997,45.199,48.517,45.595z"/></g><text x="0" y="79" fill="#000000" font-size="5px" font-weight="bold" font-family="'Helvetica Neue', Helvetica, Arial-Unicode, Arial, Sans-serif">Created by Template</text><text x="0" y="84" fill="#000000" font-size="5px" font-weight="bold" font-family="'Helvetica Neue', Helvetica, Arial-Unicode, Arial, Sans-serif">from the Noun Project</text></svg>